<?xml version="1.0" encoding="utf-8"?>
<!-- Generator: Adobe Illustrator 25.3.1, SVG Export Plug-In . SVG Version: 6.00 Build 0)  -->
<svg version="1.1" id="Layer_1" xmlns="http://www.w3.org/2000/svg" xmlns:xlink="http://www.w3.org/1999/xlink" x="0px" y="0px"
	 viewBox="0 0 200 200" style="enable-background:new 0 0 200 200;" xml:space="preserve">
<style type="text/css">
	.st0{fill:#003E91;}
	.st1{fill:#0AB5E5;}
</style>
<g>
	<g id="Layer_1_1_">
		
			<image style="overflow:visible;opacity:0.4;enable-background:new    ;" width="489" height="602" xlink:href="B5F33865.png"  transform="matrix(0.24 0 0 0.24 42.12 28.36)">
		</image>
		<path class="st0" d="M137.5,92.9c-5.1-4.3-10.5-6.6-26.2-10.9c-10.9-2.9-16-6.6-16-11.3c0-0.5,0.1-1,0.2-1.6c1.8-0.7,3.7-1,5.6-1
			c3.4,0,5.7,0.8,7.1,2.7c2.1,3,5.6,4.8,9.2,4.9h6.7c4.1,0,7.8-2.1,9.9-5.6c5.5-3.2,7.3-10.3,4.1-15.7c-0.2-0.4-0.5-0.8-0.8-1.1
			l-0.1-0.2c-7-8.8-18-13.7-31.4-13.7c-10.2-0.1-20.3,3-28.7,8.7c-9.1,6.3-15.7,15.1-16.7,26.3c-0.1,1-0.1,2-0.1,3
			c0.1,13.4,9,25,21.9,28.5c23.6,6.2,23.6,6.2,27.5,9.2c1.6,1.5,2.6,3.5,2.7,5.7c0,0.9-0.2,1.8-0.6,2.6c-1.9,0.9-4,1.4-6.1,1.4
			c-4.6,0-7.9-1.5-9.9-4.4c-2.2-3.1-5.7-5-9.5-5h-7.3c-8.4,0-16.2,6.2-15.9,15.1c0.1,2.1,0.6,4.2,1.7,6c0.3,0.6,0.7,1.2,1.2,1.7
			c1.2,1.5,2.6,2.9,4,4.2c8,7.4,18.4,11.3,30.5,11.3c14.9,0,27.6-5.7,35.2-14.6c7.3-6.2,11.7-14.8,11.7-24.4
			C147.4,105.8,144.1,98.4,137.5,92.9z"/>
		<path class="st1" d="M121.5,71.8c-3.7-0.1-7.1-1.9-9.2-4.9c-1.4-1.9-3.7-2.7-7.1-2.7c-6,0-9.8,2.7-9.8,6.6c0,4.7,5.1,8.4,16,11.3
			c15.8,4.3,21.1,6.6,26.2,10.9c6.6,5.5,9.8,12.9,9.8,21.7c0,19.9-18.4,35.1-42.8,35.1c-12.1,0-22.5-3.9-30.5-11.3
			c-1.4-1.3-2.8-2.7-4-4.2c-4-5-3.1-12.2,1.9-16.2c2-1.6,4.5-2.5,7.1-2.5h7.3c3.8,0,7.4,1.9,9.5,5c2,2.9,5.3,4.4,9.9,4.4
			c5.9,0,10.7-3.5,10.7-8c-0.1-2.2-1-4.3-2.7-5.7c-3.9-3.1-3.9-3.1-27.5-9.2c-12.9-3.5-21.8-15.1-21.9-28.4c0-19.1,18.5-34,41.6-34
			c13.3,0,24.4,4.9,31.4,13.7l0.1,0.2c3.8,5.1,2.8,12.3-2.2,16.2c-2,1.5-4.5,2.3-7,2.3L121.5,71.8z"/>
	</g>
</g>
</svg>
